<!DOCTYPE svg PUBLIC "-//W3C//DTD SVG 1.1//EN" "http://www.w3.org/Graphics/SVG/1.1/DTD/svg11.dtd">
<!-- Uploaded to: SVG Find, www.svgrepo.com, Transformed by: SVG Find Mixer Tools -->
<svg fill="#5ee70e" width="800px" height="800px" version="1.1" viewBox="144 144 512 512" xmlns="http://www.w3.org/2000/svg" stroke="#5ee70e">
<g id="SVGRepo_bgCarrier" stroke-width="0"/>
<g id="SVGRepo_tracerCarrier" stroke-linecap="round" stroke-linejoin="round"/>
<g id="SVGRepo_iconCarrier"> <path d="m253.05 621.64h293.89c20.176-0.023437 39.52-8.0469 53.785-22.312 14.266-14.266 22.289-33.609 22.312-53.785v-293.89c-0.023437-20.172-8.0469-39.516-22.312-53.781-14.266-14.266-33.609-22.289-53.785-22.312h-293.89c-20.176 0.023438-39.52 8.0469-53.785 22.312s-22.289 33.609-22.312 53.781v293.89c0.023438 20.176 8.0469 39.52 22.312 53.785s33.609 22.289 53.785 22.312zm46.258-239.74-0.003906-0.003906c4.4297-4.4297 10.438-6.918 16.699-6.918 6.2656 0 12.273 2.4883 16.699 6.918l46.301 46.277 109.25-109.25c4.4297-4.4258 10.438-6.9141 16.699-6.9141 6.2656 0 12.273 2.4883 16.699 6.9141 4.4297 4.4297 6.918 10.438 6.918 16.699 0 6.2656-2.4883 12.273-6.918 16.699l-111.11 111.1c-8.3711 8.3555-19.715 13.051-31.539 13.051-11.828 0-23.172-4.6953-31.543-13.051l-48.156-48.137v0.003907c-4.4258-4.4297-6.9141-10.438-6.9141-16.699 0-6.2656 2.4883-12.273 6.9141-16.699z"/> </g>
</svg>