<!DOCTYPE svg PUBLIC "-//W3C//DTD SVG 1.1//EN" "http://www.w3.org/Graphics/SVG/1.1/DTD/svg11.dtd">
<!-- Uploaded to: SVG Find, www.svgrepo.com, Transformed by: SVG Find Mixer Tools -->
<svg width="800px" height="800px" version="1.1" viewBox="144 144 512 512" xmlns="http://www.w3.org/2000/svg" fill="#e60707" stroke="#e60707">
<g id="SVGRepo_bgCarrier" stroke-width="0"/>
<g id="SVGRepo_tracerCarrier" stroke-linecap="round" stroke-linejoin="round"/>
<g id="SVGRepo_iconCarrier"> <defs> <clipPath id="a"> <path d="m148.09 148.09h503.81v503.81h-503.81z"/> </clipPath> </defs> <g clip-path="url(#a)"> <path d="m643.71 248.64c-2.6055-23.598-13.176-45.609-29.965-62.398-16.789-16.789-38.797-27.359-62.398-29.965-100.61-10.918-202.1-10.918-302.71 0-23.598 2.6055-45.609 13.176-62.398 29.965-16.789 16.789-27.359 38.801-29.965 62.398-10.918 100.61-10.918 202.1 0 302.71 2.6055 23.602 13.176 45.609 29.965 62.398 16.789 16.789 38.801 27.359 62.398 29.965 100.61 10.918 202.1 10.918 302.71 0 23.602-2.6055 45.609-13.176 62.398-29.965s27.359-38.797 29.965-62.398c10.918-100.61 10.918-202.1 0-302.71zm-195.82 154.73 74.977 74.977c3.9375 3.9375 6.1484 9.2773 6.1484 14.844s-2.2109 10.906-6.1484 14.844l-14.84 14.84c-3.9375 3.9375-9.2773 6.1484-14.844 6.1484s-10.906-2.2109-14.844-6.1484l-74.977-74.977h0.003906c-0.89453-0.89453-2.1094-1.3984-3.375-1.3984s-2.4805 0.50391-3.375 1.3984l-74.977 74.977c-3.9375 3.9375-9.2773 6.1484-14.844 6.1484-5.5664 0-10.906-2.2109-14.844-6.1484l-14.84-14.84c-3.9336-3.9375-6.1484-9.2773-6.1484-14.844s2.2148-10.906 6.1484-14.844l74.977-74.977v0.003906c0.89453-0.89844 1.3984-2.1094 1.3984-3.375s-0.50391-2.4805-1.3984-3.375l-74.977-74.977c-3.9336-3.9375-6.1484-9.2773-6.1484-14.844 0-5.5664 2.2148-10.906 6.1484-14.844l14.84-14.84c3.9375-3.9336 9.2773-6.1484 14.844-6.1484 5.5664 0 10.906 2.2148 14.844 6.1484l74.977 74.977c0.89453 0.89453 2.1094 1.3984 3.375 1.3984s2.4766-0.50391 3.375-1.3984l74.977-74.977h-0.003906c3.9375-3.9336 9.2773-6.1484 14.844-6.1484s10.906 2.2148 14.844 6.1484l14.84 14.84c3.9375 3.9375 6.1484 9.2773 6.1484 14.844 0 5.5664-2.2109 10.906-6.1484 14.844l-74.977 74.977c-0.89453 0.89453-1.3984 2.1094-1.3984 3.375s0.50391 2.4766 1.3984 3.375z"/> </g> </g>
</svg>